<?xml version="1.0" encoding="UTF-8"?><svg id="a" xmlns="http://www.w3.org/2000/svg" viewBox="0 0 16.47 16.47"><defs><style>.b{fill:#f6f6f6;}.c{fill:#b59e39;}</style></defs><rect class="c" width="16.47" height="16.47" rx="2.68" ry="2.68"/><path class="b" d="M5.78,7.88c.21-.38.42-.76.62-1.14.28-.51.42-.9.43-1.16,0-.11-.02-.23-.05-.35-.04-.12-.15-.24-.34-.37l-.35-.23c-.34,0-.76.26-1.24.78l-1.58,1.71c-.14,0-.31-.09-.49-.28-.18-.19-.29-.36-.32-.51,0-.18.29-.58.88-1.21.47-.5.86-.88,1.15-1.13.54-.46,1-.68,1.38-.68.29,0,.55.07.78.22l.7.44c.23.15.42.38.57.68.15.3.23.6.23.9,0,.78-.5,2.13-1.52,4.03l-.82,1.51c0,.07.07.11.2.12l.25-.04.31-.05h.72l.49-.02c.32-.02.58.1.77.35.19.25.3.54.31.87,0,.06-.17.16-.5.28-.34.09-.79.16-1.34.22-.18,0-.45.01-.8.04-.35.02-.62.04-.79.04-.13,0-.33.03-.61.08-.28.05-.49.08-.64.08-.17,0-.28-.09-.34-.28-.06-.28-.08-.53-.08-.76v-.37c.61-1.11,1.28-2.37,2.03-3.76Z"/><path class="b" d="M9.31,10.26c-.22,0-.44-.08-.66-.24-.22-.16-.33-.46-.34-.9,0-.06.22-.58.67-1.56.49-1.06.93-1.97,1.32-2.73.43-.84.72-1.26.86-1.26.18,0,.45.07.79.22.38.15.59.3.62.44.06.3.1.8.12,1.5,0,.25,0,.71.02,1.38.02.63.04,1.05.04,1.26,0,.04.04.08.13.13l.55.07c.12,0,.25.15.38.46.11.26.17.47.18.62,0,.09-.09.14-.29.16l-.72-.07c-.1,0-.14.02-.14.07l.05,1.09.05,1.37.07.66c0,.1-.01.16-.04.18s-.06.04-.11.06c-.5,0-.84-.16-1.02-.48-.1-.18-.19-.58-.28-1.21-.1-.75-.16-1.24-.17-1.46,0-.12-.09-.18-.24-.19l-1.87.44ZM10.26,8.85l.67-.07c.2,0,.32-.03.36-.08.02-.03.06-.12.1-.25v-.17s.02-.32.02-.32v-.19s-.01-1.59-.01-1.59c0-.18,0-.32.02-.42,0-.06-.03-.11-.08-.13-.38,0-.68.2-.92.59-.18.3-.34.74-.48,1.33-.09.46-.18.93-.28,1.39h.22l.38-.07Z"/></svg>