<?xml version="1.0" encoding="UTF-8"?><svg id="a" xmlns="http://www.w3.org/2000/svg" viewBox="0 0 53.71 19.69"><defs><style>.b{fill:#f6f6f6;}.c{fill:#b59e39;}</style></defs><path class="b" d="M5.07,5.96c.38,0,.73.36,1.04,1.08l.88,2.69c.3.94.7,1.74,1.18,2.4.78-.55,1.4-1.2,1.86-1.94.3-.48.69-1.29,1.16-2.44.4-.97.73-1.46,1-1.46.16,0,.36.1.6.31.49.72.83,1.49,1.02,2.3.08.35.21,1.19.38,2.53s.41,2.41.7,3.25l.29.61c.1.22.16.44.16.66,0,.38-.22.58-.66.58l-.38-.04-.31-.1c-.31-.39-.56-1.01-.76-1.85-.12-.5-.25-1.29-.38-2.36-.13-1.04-.24-1.75-.34-2.14-.82.24-1.45.68-1.9,1.31l-1.15,1.62c-.46.53-1.06.79-1.79.79-.54,0-.86-.13-.98-.38-.08-.18-.28-.86-.6-2.04-.3-1.1-.69-2.07-1.19-2.93-.79.52-1.39,1.26-1.79,2.22-.27.66-.5,1.6-.7,2.82-.16,1.03-.34,1.55-.54,1.56-.18,0-.47-.23-.88-.71-.07-.04-.11-.17-.11-.38,0-.66.21-1.62.64-2.89.46-1.36.99-2.53,1.61-3.52.65-1.03,1.3-1.55,1.94-1.55Z"/><path class="b" d="M21.78,14.69c0,.18-.06.34-.17.46-.12.12-.26.19-.44.19-.33,0-.64-.1-.92-.29-.29-.19-.5-.43-.65-.71-.16-.02-.31.06-.46.26-.17.23-.28.36-.32.38-.26.11-.66.17-1.2.17-.45,0-.85-.25-1.2-.76-.3-.44-.46-.85-.46-1.24,0-.71.35-1.38,1.06-1.99.67-.59,1.35-.89,2.04-.89.17,0,.33.05.48.16.19.13.29.29.29.48,0,.11-.04.23-.11.35.49.18.73.48.73.88,0,.08-.01.19-.04.34-.02.15-.04.25-.04.31,0,.07,0,.13.02.18.1.27.37.62.79,1.04.39.39.59.62.59.67ZM19.26,11.56c-.08,0-.2-.01-.36-.04-.16-.03-.27-.04-.33-.04-.25,0-.57.2-.97.59s-.6.74-.6,1.03c0,.17.07.36.21.56.18.26.41.4.67.4.54,0,.9-.3,1.09-.9.1-.54.2-1.07.3-1.6Z"/><path class="b" d="M28.33,14.29c.12.13.18.26.18.4,0,.16-.08.3-.23.43-.15.13-.28.19-.38.19-.06,0-.52-.2-1.4-.59-1.06-.46-1.76-.76-2.11-.9-.04-.03-.08-.05-.11-.05-.1,0-.14.22-.12.66.02.54.02.85-.01.95-.1.33-.33.5-.71.52-.26-1.19-.45-2.24-.56-3.13-.06-.5-.11-1.05-.13-1.63-.02-.41-.05-.68-.1-.83,0-.02-.01-.13-.01-.31,0-.87.06-1.78.17-2.71.16-1.26.38-1.9.66-1.9.37,0,.55.34.55,1.03,0,.07-.06.51-.17,1.33-.11.81-.17,1.25-.17,1.33,0,.59.03,1,.1,1.21.02.06.05.1.1.1,0,0,.19-.08.55-.25s.75-.26,1.16-.29c.39-.02.87.04,1.43.18.68.17,1.02.39,1.02.67,0,.14-.1.31-.3.49-.2.18-.34.28-.42.28-.05,0-.25-.07-.61-.2-.36-.14-.65-.21-.89-.22-.58-.04-1.18.17-1.8.64v.25c0,.06,0,.15-.01.29,0,.09,0,.15.01.2.02.04.05.09.11.14.17.18.54.37,1.1.59.42.15.84.3,1.26.46l1.85.7Z"/><path class="b" d="M33.19,14.64c0,.11-.18.22-.55.34-.3.09-.5.13-.61.13-.82,0-1.5-.19-2.06-.58-.66-.46-1-1.13-1-2,0-.58.22-1.2.65-1.86.52-.78,1.13-1.16,1.82-1.16.42,0,.76.13,1.02.38.26.26.4.58.4.98s-.17.81-.52,1.26c-.38.49-.78.73-1.22.73-.07,0-.12-.02-.15-.05-.03-.04-.06-.05-.1-.05-.1,0-.36.07-.78.22.14.44.44.77.9,1,.36.18.76.26,1.21.26.05,0,.1-.01.17-.03.06-.02.12-.03.17-.03.14,0,.29.05.44.16.15.1.22.21.22.31ZM31.72,11.16v-.59s-.05-.01-.11-.04c-.06-.02-.12-.04-.18-.04-.22,0-.48.17-.79.5-.26.3-.43.54-.49.72.16.14.31.2.46.2.07,0,.26-.09.58-.26.37-.2.55-.37.54-.5Z"/><path class="c" d="M38.24,9.19c.36-.67.73-1.34,1.09-1.99.49-.9.74-1.58.76-2.04,0-.2-.03-.4-.09-.61-.06-.21-.26-.43-.6-.65l-.61-.4c-.6,0-1.32.46-2.16,1.37l-2.77,3c-.25,0-.54-.16-.86-.49-.32-.33-.51-.63-.57-.89,0-.31.51-1.01,1.53-2.12.83-.88,1.5-1.54,2.02-1.97.94-.8,1.74-1.2,2.42-1.2.5,0,.96.13,1.37.38l1.22.78c.41.27.74.67,1,1.2.26.53.39,1.06.41,1.58.01,1.37-.88,3.72-2.67,7.06l-1.43,2.65c0,.13.12.2.36.21l.44-.06.55-.08h1.26l.86-.04c.56-.03,1.01.18,1.34.62.34.44.52.95.55,1.52,0,.11-.29.27-.88.48-.6.15-1.39.28-2.35.38-.32,0-.79.02-1.41.06-.62.04-1.08.06-1.39.06-.22,0-.58.05-1.06.14-.48.09-.86.14-1.12.14-.29,0-.49-.16-.59-.48-.1-.49-.15-.93-.15-1.32v-.31l.02-.34c1.05-1.95,2.23-4.14,3.53-6.59Z"/><path class="c" d="M44.41,13.35c-.39,0-.78-.14-1.16-.42-.38-.28-.57-.81-.59-1.58,0-.11.39-1.02,1.18-2.73.85-1.86,1.62-3.46,2.31-4.79.76-1.47,1.26-2.2,1.51-2.2.32,0,.78.13,1.39.38.67.27,1.04.52,1.09.78.11.53.18,1.41.21,2.62,0,.43.01,1.24.04,2.42.04,1.11.06,1.84.06,2.21,0,.07.08.15.23.23l.97.13c.21,0,.43.27.67.8.2.46.3.83.32,1.09.01.15-.15.25-.5.27l-1.26-.13c-.17,0-.25.04-.25.13l.08,1.91.08,2.39.13,1.16c0,.17-.02.27-.06.31s-.11.08-.19.1c-.88,0-1.48-.28-1.79-.84-.17-.31-.33-1.02-.48-2.12-.18-1.32-.28-2.17-.29-2.56-.01-.21-.15-.32-.42-.34l-3.28.78ZM46.07,10.89l1.18-.13c.35,0,.56-.05.63-.15.04-.06.1-.2.17-.44l.02-.29.02-.57-.02-.34v-2.79c0-.32.01-.57.04-.73,0-.11-.05-.19-.15-.23-.66,0-1.2.34-1.62,1.03-.32.52-.6,1.3-.84,2.33-.15.81-.31,1.62-.48,2.44h.38l.67-.13Z"/></svg>